<svg id="icon" height="512" viewBox="0 0 128 128" width="512" xmlns="http://www.w3.org/2000/svg"><path d="m106 64c0 3.064-4.2 5.614-4.854 8.481-.673 2.96 1.991 7.077.7 9.747-1.31 2.714-6.2 3.191-8.064 5.522s-1.254 7.217-3.6 9.087-6.943.182-9.658 1.492c-2.67 1.288-4.224 5.953-7.183 6.626-2.867.652-6.283-2.863-9.347-2.863s-6.48 3.514-9.347 2.863c-2.96-.673-4.513-5.338-7.184-6.626-2.714-1.31-7.326.37-9.658-1.492s-1.726-6.745-3.6-9.087-6.754-2.808-8.064-5.522c-1.288-2.67 1.376-6.787.7-9.747-.641-2.867-4.841-5.417-4.841-8.481s4.2-5.614 4.854-8.481c.673-2.96-1.991-7.077-.7-9.747 1.31-2.714 6.2-3.191 8.064-5.522s1.254-7.217 3.6-9.087 6.943-.182 9.658-1.492c2.67-1.288 4.224-5.953 7.183-6.626 2.867-.652 6.283 2.863 9.347 2.863s6.48-3.514 9.347-2.863c2.96.673 4.513 5.338 7.184 6.626 2.714 1.31 7.326-.37 9.658 1.492s1.726 6.745 3.6 9.087 6.754 2.808 8.064 5.522c1.288 2.67-1.376 6.787-.7 9.747.641 2.867 4.841 5.417 4.841 8.481z" fill="#ef5261"/><g fill="#eeefee"><path d="m64 92.9a28.9 28.9 0 1 1 28.9-28.9 28.928 28.928 0 0 1 -28.9 28.9zm0-54.78a25.88 25.88 0 1 0 25.88 25.88 25.91 25.91 0 0 0 -25.88-25.88z"/><path d="m55.171 50.423c-3.477 0-6.349 2.95-6.349 8.2.039 5.294 2.872 7.921 6.144 7.921 3.389 0 6.3-2.754 6.3-8.293 0-4.995-2.422-7.828-6.095-7.828zm-.127 13.977c-2.227 0-3.477-2.54-3.4-5.9 0-3.311 1.172-5.939 3.4-5.939 2.461 0 3.389 2.666 3.389 5.86 0 3.479-1.045 5.979-3.389 5.979z"/><path d="m73.239 50.423-15.432 27.154h-3.085l15.432-27.154z"/><path d="m73.122 61.294c-3.477 0-6.349 2.95-6.349 8.244.039 5.255 2.872 7.882 6.144 7.882 3.35 0 6.261-2.754 6.261-8.283 0-5.02-2.384-7.843-6.056-7.843zm-.122 13.978c-2.178 0-3.467-2.54-3.428-5.9 0-3.311 1.211-5.939 3.428-5.939 2.471 0 3.4 2.666 3.4 5.86-.006 3.478-1.061 5.979-3.4 5.979z"/></g></svg>