<svg id="icon" height="512" viewBox="0 0 128 128" width="512" xmlns="http://www.w3.org/2000/svg"><circle cx="53.042" cy="53.042" fill="#575b6d" r="26.966" transform="matrix(.707 -.707 .707 .707 -21.971 53.042)"/><path d="m68.853 68.853a22.36 22.36 0 1 1 0-31.622 22.386 22.386 0 0 1 0 31.622z" fill="#69b0ee"/><path d="m67.783 68.019h10.7v10.227h-10.7z" fill="#575b6d" transform="matrix(.707 -.707 .707 .707 -30.293 73.133)"/><path d="m79.583 69.4h14.853a1 1 0 0 1 1 1v25.793a8.422 8.422 0 0 1 -8.422 8.422 8.422 8.422 0 0 1 -8.422-8.422v-25.793a1 1 0 0 1 1-1z" fill="#dd944b" transform="matrix(.707 -.707 .707 .707 -36.041 87.01)"/><g fill="#eeefee"><circle cx="53.042" cy="45.246" r="6.217"/><path d="m65.56 63.055h-25.036a12.518 12.518 0 1 1 25.036 0z"/></g></svg>