<svg id="icon" height="512" viewBox="0 0 128 128" width="512" xmlns="http://www.w3.org/2000/svg"><path d="m101.376 37.526v49.21h-74.752v-49.21a3.262 3.262 0 0 1 3.262-3.262h68.228a3.262 3.262 0 0 1 3.262 3.262z" fill="#62667c"/><path d="m22 83.474h84a0 0 0 0 1 0 0v6.262a4 4 0 0 1 -4 4h-76a4 4 0 0 1 -4-4v-6.262a0 0 0 0 1 0 0z" fill="#62667c"/><path d="m31.04 38.48h65.92v44.99h-65.92z" fill="#69b0ee"/><path d="m70.983 86.736h-13.966l-1.886-3.262h17.738z" fill="#828a9e"/><rect fill="#eeefee" height="24.932" rx="3.32" width="38.209" x="44.895" y="48.509"/><path d="m44.895 52.362h38.209v4.33h-38.209z" fill="#575b6d"/><g fill="#62667c"><path d="m80.12 56.692h-1.003l2.985-4.33h1.003z"/><path d="m77.278 56.692h-1.003l2.985-4.33h1.003z"/><path d="m74.436 56.692h-1.003l2.985-4.33h1.003z"/><path d="m71.594 56.692h-1.003l2.985-4.33h1.003z"/><path d="m68.752 56.692h-1.003l2.985-4.33h1.003z"/><path d="m65.91 56.692h-1.003l2.986-4.33h1.003z"/><path d="m63.069 56.692h-1.003l2.985-4.33h1.003z"/><path d="m60.227 56.692h-1.003l2.985-4.33h1.003z"/><path d="m57.385 56.692h-1.003l2.985-4.33h1.003z"/><path d="m54.543 56.692h-1.003l2.985-4.33h1.003z"/><path d="m51.701 56.692h-1.003l2.985-4.33h1.003z"/><path d="m48.86 56.692h-1.003l2.985-4.33h1.003z"/><path d="m46.018 56.692h-1.003l2.985-4.33h1.003z"/></g><path d="m47.208 59.622h4.74v1.29h-4.74z" fill="#dbd8dd"/><path d="m47.208 65.305h23.97v1.069h-23.97z" fill="#dbd8dd"/><path d="m47.208 69.013h33.584v1.069h-33.584z" fill="#dbd8dd"/><path d="m56.823 59.622h4.74v1.29h-4.74z" fill="#dbd8dd"/><path d="m66.437 59.622h4.74v1.29h-4.74z" fill="#dbd8dd"/><path d="m76.052 59.622h4.74v1.29h-4.74z" fill="#dbd8dd"/></svg>